<svg version="1.2" xmlns="http://www.w3.org/2000/svg" viewBox="0 0 84 48" width="84" height="48">
	<style>
		.s0 { fill: #000000 } 
	</style>
	<path class="s0" d="m83.4 35.7c-0.1-0.6-0.4-1.1-0.8-1.4l-7.8-6v-2.1-3-3c0-0.1 0-0.1 0-0.2v-0.1c0-0.1-0.1-0.1-0.1-0.2v-0.1c0 0 0 0-0.1-0.1l-0.1-0.1c0 0 0 0-0.1-0.1l-19-12.4c-0.2-0.1-0.4-0.2-0.7-0.2-0.4 0-7.7 0.8-15.4 4.7 0-0.4 0-0.7 0-1.1q0-0.15 0-0.3l-1.1-5.1c-0.5-2.4-3.6-5.5-10-4.2l-13.8 3.1c-1.2 0.3-1.9 1.4-1.6 2.6 0.5 2.4 2.6 4 5 4q0 0.15 0 0.3c0.5 2.1 2.8 3.1 4.9 3.4 0 0.2 0 0.4 0.1 0.6 0.3 1.3 1.1 2.4 2.2 3.2 0.1 0.1 0.2 0.1 0.3 0.2l-1 0.5c-0.3 0.2-0.6 0.5-0.6 0.9 0 0.1 0 0.3 0.1 0.4-6.6 2-14.5 3-18.8 3.4-1.2 0.1-2.2 0.2-3.2 0.3h-0.1c-0.1 0-0.1 0-0.2 0.1 0 0 0 0-0.1 0.1-0.1 0-0.1 0.1-0.2 0.1 0 0 0 0-0.1 0 0 0 0 0 0 0.1 0 0.1-0.1 0.1-0.1 0.2 0 0 0 0 0 0.1 0 0 0 0 0 0.1 0 0.1 0 0.1 0 0.2v0.1 3 3 3c0 0.3 0.2 0.6 0.4 0.8l20 13.2c0.2 0.1 0.4 0.2 0.6 0.2h0.1c0.6 0 13-1.1 22.3-6.2 0.1 0 0.1 0 0.2 0 0.2 0 0.3 0 0.5-0.1l5.4-3.1c0.5 0.3 1.3 0.4 2.4 0.1 3.5-0.9 5 0 7.4 2 1.5 1.1 3.7 1.8 5.8 1.8 0.4 0 0.7 0 1.1-0.1 1.4-0.2 2.5-0.7 3.1-1.5 0.1-0.2 0.2-0.3 0.3-0.5 2.1 0.6 4.6 0.7 5.9-1 0.1-0.1 0.1-0.2 0.2-0.2 2.1 1 4.7 0.4 6.2-1.5 0.4-0.7 0.6-1.3 0.5-1.9zm-19.1-12.1c-2.2-0.1-4.3 0.3-5.5 1l-1.4 0.7c-0.2 0.1-1.3 0.7-2.2 1.3-0.3 0.1-0.6 0.3-0.9 0.4v-0.8c7.2-3.5 15.5-4.6 18.4-4.8v1c-1.5 0-4.6 0.3-8.4 1.2zm8.4 0.7v1c-0.5 0-1.1 0.1-1.8 0.2-0.5-0.3-1-0.5-1.5-0.8 1.4-0.2 2.6-0.4 3.3-0.4zm-1.9-4.9c-3.7 0.5-10.5 1.6-16.7 4.5 0 0 0 0-0.1-0.1l-0.1-0.1-0.1-0.1c0 0-0.1 0-0.1-0.1l-16.7-8.4c7.6-4.7 15.9-6.1 17.6-6.3zm-44.7-3.3c-0.7-0.4-1.2-1.1-1.4-1.9v-0.1l6.5-1.8c0.5-0.1 0.8-0.7 0.7-1.2-0.1-0.5-0.7-0.8-1.2-0.7l-6.5 1.8c-2.1 0-4.2-0.9-4.4-2 0-0.1 0.1-0.2 0.1-0.2l7.6-1.9c0.5-0.1 0.9-0.7 0.7-1.2-0.2-0.5-0.7-0.9-1.2-0.7l-7.6 1.9-1.1 0.2c-1.7 0.4-3.3-0.7-3.7-2.3 0-0.1 0-0.2 0.1-0.2l13.6-3.1c5.5-1.2 7.4 1.5 7.6 2.6l1.1 4.9c0 0.1 0 0.1 0 0.2 0.1 0.8 0 1.6-0.2 2.2-0.7 0.4-1.4 0.8-2.1 1.3h-0.1q-0.45-0.15-0.9 0l-5.5 2.6c-0.6 0.2-1.4 0.1-2.1-0.4zm17.6 23.5c-8.1 4.5-19.3 5.8-21.3 6l-19.3-12.7v-0.6l18.5 12.2c0.2 0.1 0.4 0.2 0.6 0.2h0.1c0.6 0 12.3-1.1 21.5-5.8v0.7zm0-3c-8.1 4.5-19.3 5.8-21.3 6l-19.3-12.7v-0.6l18.5 12.2c0.2 0.1 0.4 0.2 0.6 0.2h0.1c0.6 0 12.3-1.1 21.5-5.8v0.7zm0-3c-8.1 4.5-19.3 5.8-21.3 6l-19.3-12.7v-0.6l18.5 12.2c0.2 0.1 0.4 0.2 0.6 0.2h0.1c0.6 0 12.3-1.1 21.5-5.8v0.7zm0-3c-8.1 4.5-19.3 5.8-21.3 6l-17.4-11.4c4.6-0.5 13.9-1.6 21.1-4.1l17.5 9v0.5zm0.9-2.2l-17.6-9 7.2-3.4 16.9 8.6zm4.7 8.3l-3.6 2.1v-8.7l6.7-3.8v3c-2.5 2.7-3.6 5.5-3.1 7.4zm32.1-0.6c-1 1.3-3 1.6-4.3 0.6l-0.9-0.7-6.2-4.9c-0.4-0.3-1.1-0.3-1.4 0.2-0.3 0.4-0.3 1.1 0.2 1.4l6.2 4.9c0.1 0.1 0.1 0.2 0 0.2-0.6 0.8-2.9 0.8-4.8-0.1l-7.3-6c-0.4-0.4-1.1-0.3-1.4 0.1-0.3 0.4-0.3 1.1 0.1 1.4l7.2 5.9v0.1c-0.3 0.4-0.9 0.6-1.8 0.7-1.8 0.2-4.1-0.3-5.4-1.4-1.8-1.4-3.5-2.7-6.2-2.7-0.9 0-1.8 0.1-2.9 0.4-0.3 0.1-1.1 0.2-1.2-0.1-0.4-0.8 0.4-4 4.5-7.7 0.4-0.4 1.8-1.2 2.6-1.6l1.4-0.7c2-1.1 8-1.2 11.4 1.7l10.2 7.8 0.1 0.1c-0.1 0.3-0.1 0.3-0.1 0.4z"/>
</svg>