<svg version="1.2" xmlns="http://www.w3.org/2000/svg" viewBox="0 0 100 125" width="100" height="125">
	<style>
		.s0 { fill: #000000 } 
	</style>
	<g>
		<path class="s0" d="m36.15 76.8c0.35-0.07 0.65-0.2 0.94-0.33 1.07-0.56 1.75-1.26 2.39-1.94 0.61-0.67 1.17-1.41 1.65-2l0.02-0.03c0.54-0.67 0.43-1.66-0.24-2.19-0.67-0.54-1.66-0.44-2.19 0.24-0.58 0.71-1.03 1.31-1.55 1.88-0.49 0.54-1.04 1.03-1.47 1.24-0.22 0.1-0.28 0.1-0.36 0.1q-0.21-0.01-0.53-0.2c-0.44-0.26-0.98-0.81-1.62-1.43-0.32-0.31-0.68-0.65-1.15-0.97-0.21-0.16-0.52-0.33-0.75-0.44q-0.35-0.17-0.69-0.3c-0.92-0.35-1.85-0.57-2.72-0.71-1.01-0.17-1.95-0.3-2.83-0.45q1.25-2.18 2.63-4.18c1.29-1.82 2.82-3.57 4.28-3.58 0.78-0.07 1.86 0.21 2.99 0.51 1.15 0.31 2.36 0.63 3.6 0.86 2.48 0.49 5.02 0.53 7.51 0.37l2.25-0.14-0.93-2.01c-0.53-1.17-1.05-1.93-1.56-2.82q-0.78-1.28-1.46-2.54c-0.44-0.83-0.85-1.68-1.09-2.46-0.13-0.36-0.17-0.74-0.18-0.9 0.03-0.06 0.15-0.34 0.33-0.56 0.48-0.69 1.18-1.45 1.84-2.37 0.33-0.48 0.69-0.99 0.93-1.83 0.06-0.19 0.08-0.49 0.1-0.73 0.01-0.22 0-0.3 0-0.46q-0.02-0.43-0.06-0.86c-0.12-1.15-0.45-2.22-0.57-3.02-0.13-0.8-0.07-1.46 0.17-2.27 0.24-0.81-0.2-1.67-1.01-1.93-0.82-0.27-1.7 0.18-1.97 1l-0.01 0.02c-0.35 1.11-0.48 2.49-0.26 3.66 0.19 1.18 0.46 2.03 0.54 2.88q0.04 0.32 0.05 0.64c0 0.09 0.01 0.25 0 0.28-0.02 0 0.02-0.04 0 0.01-0.03 0.12-0.22 0.48-0.46 0.81-0.5 0.71-1.17 1.43-1.84 2.37q-0.26 0.35-0.51 0.83-0.13 0.23-0.24 0.56c-0.07 0.19-0.13 0.47-0.15 0.77-0.01 0.86 0.14 1.45 0.32 2.02 0.35 1.13 0.83 2.08 1.32 3.01q0.75 1.38 1.53 2.67 0.09 0.16 0.19 0.32c-1.42-0.01-2.83-0.11-4.21-0.39-1.11-0.2-2.2-0.49-3.36-0.8-1.16-0.29-2.41-0.71-4.02-0.61-0.79 0.05-1.61 0.28-2.3 0.64-0.71 0.36-1.27 0.82-1.8 1.28-1 0.94-1.78 1.95-2.51 2.97-1.42 2.04-2.64 4.13-3.81 6.23l-0.91 1.63 1.75 0.6c1.85 0.65 3.64 0.77 5.18 1.04q1.17 0.19 2.13 0.55 0.24 0.1 0.47 0.2c0.14 0.07 0.2 0.11 0.33 0.19q0.34 0.25 0.76 0.66c0.57 0.53 1.18 1.24 2.17 1.86 0.5 0.3 1.14 0.56 1.83 0.62 0.33 0.05 0.78 0.01 1.12-0.07z"/>
		<path class="s0" d="m91.4 72.18l-4.16-5.26c-1.19-1.46-2.4-2.98-4-4.34 0.55-1.77 0.96-3.62 1.15-5.5q0.15-1.43 0.16-2.85l-0.1-2.8-0.04-1.24-1.24-0.46q-0.57-0.22-1.14-0.44-0.59-1.81-0.88-3.77c-0.22-1.36-0.23-2.75-0.69-4.54-0.21-0.87-0.73-1.91-1.5-2.74-0.82-0.77-1.76-1.28-2.62-1.55-1.74-0.59-3.29-0.66-4.83-0.75-1.52-0.06-3.04-0.01-4.37-0.05-1.27-0.02-2.44-0.27-3.52-0.69-1.07-0.45-2-1.17-2.95-2.09-0.95-0.91-1.9-2.05-3.13-3.14-1.21-1.1-2.81-2.07-4.54-2.52l-1.29-0.27-1.28-0.09c-0.43-0.05-0.84-0.03-1.24-0.01q-0.62 0.02-1.23 0.1c-3.26 0.36-6.37 1.75-8.88 3.78q-0.91 0.74-1.71 1.56-0.29-0.37-0.58-0.8c-0.54-0.78-1.13-1.72-2.06-2.62-0.93-0.91-2.24-1.59-3.47-1.85-1.26-0.26-2.31-0.33-3.65-0.15-0.62 0.08-1.19 0.26-1.77 0.43-0.52 0.22-1.09 0.4-1.57 0.66q-1.51 0.75-2.79 1.69c-1.73 1.24-3.27 2.65-4.68 4.18q-1.06 1.14-2.02 2.44l-0.47 0.68-0.45 0.75c-0.16 0.27-0.31 0.62-0.45 0.97q-0.14 0.46-0.19 0.95c-0.01 0.24 0.01 0.35 0.01 0.53 0.08 1.3 0.42 2.35 0.72 3.35l0.94 2.76c0.26 0.85 0.45 1.67 0.41 2.22-0.05 0.62-0.14 0.9-0.62 1.45l-1.01 1.07c-0.41 0.46-0.91 1.16-1.15 2.01-0.12 0.43-0.16 0.84-0.17 1.25q0 0.58 0.09 1.07 0.06 0.29 0.13 0.55l-0.43 0.41-1.37 1.26c-0.92 0.89-1.85 1.76-2.74 3q-0.34 0.45-0.66 1.11c-0.1 0.27-0.21 0.44-0.28 0.81-0.07 0.36-0.11 0.75-0.08 0.93 0.01 0.96 0.3 1.8 0.61 2.52 0.65 1.43 1.47 2.43 2.07 3.39 0.63 0.95 0.99 1.78 0.99 2.37 0.01 0.29-0.08 0.8-0.21 1.32q-0.2 0.79-0.48 1.67c-0.35 1.15-0.75 2.37-1.04 3.7q-0.22 0.99-0.31 2.1c-0.05 0.73-0.03 1.6 0.19 2.44 0.21 0.84 0.61 1.69 1.2 2.4 0.58 0.71 1.34 1.26 2.13 1.63 1.58 0.74 3.33 0.8 4.83 0.47 1.47-0.32 2.66-0.86 3.63-1.13q0.72-0.2 1.23-0.17c0.42 0 0.59 0.09 0.73 0.17 0.14 0.08 0.38 0.35 0.79 0.9 0.39 0.52 1.03 1.27 1.85 1.75 0.81 0.48 1.7 0.75 2.47 0.84q1.16 0.15 2.28 0.05 0.1-0.01 0.2-0.02 0.24 0.23 0.56 0.37l0.03 0.01c1.17 0.51 2.24 1.33 3.37 2.34 1.14 0.99 2.3 2.18 3.73 3.24q1.07 0.82 2.34 1.44l0.31 0.16 0.08 0.04 0.02 0.01h0.01 0.01c-0.43-0.06 1.24 0.3 0.82 0.18q0.22-0.01 0.46-0.07c0.3-0.07 0.68-0.29 0.61-0.25l0.09-0.06c0.24-0.15 0.39-0.25 0.57-0.37l1-0.71q1.79-1.27 3.52-2.62 0.89 0.01 1.89-0.08 0.6-0.11 1.19-0.25c0.41-0.11 0.84-0.32 1.24-0.49 0.4-0.26 0.83-0.52 1.16-0.86 0.34-0.34 0.66-0.7 0.87-1.06 0.26-0.38 0.39-0.69 0.57-1.03l0.39-0.85c0.23-0.53 0.45-0.82 0.65-1.09q0.6-0.67 2.11-0.86c0.24-0.05 0.52-0.04 0.78-0.06l0.39-0.02 0.2-0.01q0.03 0.01 0.06 0.01c0.15 0.03 0.16 0 0.43 0.25 0.26 0.25 0.61 0.74 1.13 1.32 0.5 0.57 1.29 1.26 2.29 1.59q0.74 0.24 1.45 0.27c0.22 0.02 0.5 0 0.77-0.03q0.41-0.04 0.75-0.15c0.97-0.28 1.69-0.76 2.27-1.22 1.17-0.92 2-1.89 2.82-2.62 0.39-0.37 0.78-0.67 1.04-0.78 0.07-0.06 0.11-0.05 0.15-0.07q0.07-0.03 0.07-0.01c-0.02-0.04 0.18-0.01 0.33 0.02 0.35 0.07 0.86 0.27 1.46 0.5 0.62 0.23 1.37 0.52 2.36 0.58 0.28 0.02 0.44 0.01 0.61 0l0.54-0.02c0.35 0 0.73-0.07 1.1-0.12 0.75-0.11 1.55-0.33 2.33-0.71 0.78-0.39 1.49-0.99 2.03-1.63 0.55-0.64 0.9-1.29 1.23-1.89 0.61-1.19 1.07-2.22 1.66-3.12 0.14-0.2 0.31-0.48 0.43-0.61q0.16-0.22 0.41-0.44 0.48-0.44 1.24-0.91c0.97-0.65 2.29-1.4 3.34-2.78l0.88-1.16zm-80.49-8.66c-0.02-0.09 0.01-0.05 0 0zm31.32 30.56h-0.01l-0.01-0.01-0.04-0.02c0.13 0.03 0.19 0.05 0.06 0.03zm43.79-19.99c-0.54 0.35-1.14 0.75-1.73 1.28q-0.45 0.4-0.85 0.92c-0.28 0.34-0.42 0.59-0.63 0.9-0.77 1.17-1.31 2.4-1.83 3.4-0.26 0.47-0.52 0.91-0.77 1.21-0.27 0.29-0.51 0.5-0.84 0.66q-0.49 0.24-1.19 0.35c-0.25 0.02-0.47 0.08-0.74 0.08l-0.39 0.01c-0.13 0.01-0.28 0.01-0.31 0.01-0.24-0.01-0.68-0.14-1.21-0.34-0.55-0.2-1.18-0.49-2.04-0.67-0.45-0.09-0.88-0.17-1.5-0.09q-0.47 0.04-0.84 0.17c-0.25 0.08-0.51 0.17-0.7 0.28-0.85 0.43-1.42 0.93-1.93 1.39-1.01 0.93-1.81 1.83-2.59 2.42-0.38 0.31-0.74 0.5-0.95 0.55q-0.1 0.04-0.15 0.03c-0.04 0-0.07 0.03-0.15 0.01q-0.22-0.01-0.36-0.06c-0.19-0.06-0.37-0.19-0.69-0.53-0.31-0.34-0.67-0.87-1.28-1.49-0.58-0.63-1.72-1.29-2.81-1.34l-0.4-0.03-0.26 0.01-0.53 0.03c-0.36 0.02-0.7 0.01-1.07 0.07l-1.12 0.21c-0.38 0.08-0.78 0.24-1.17 0.38-0.38 0.12-0.78 0.4-1.16 0.62-0.37 0.25-0.72 0.58-1.04 0.9-1.21 1.39-1.56 2.89-1.99 3.45-0.2 0.35-0.39 0.44-0.62 0.61-0.17 0.05-0.29 0.13-0.48 0.19q-0.31 0.05-0.61 0.13c-0.93 0.08-2.09 0.06-3.26-0.07q-1.76-0.17-3.55-0.45v-0.01c-1.07-0.16-2.06 0.57-2.23 1.63-0.16 1.07 0.57 2.07 1.63 2.23q0.16 0.02 0.31 0.05 0 0 0 0l-0.64 0.42q-0.57-0.33-1.13-0.76c-1.13-0.83-2.21-1.93-3.45-3.05q-0.56-0.5-1.18-0.99 0.81-0.18 1.55-0.23h0.04q0.01 0 0.02 0c1.07-0.09 1.87-1.03 1.79-2.1-0.09-1.08-1.03-1.88-2.1-1.79-2.95 0.23-5.28 1.33-7.25 1.48-0.47 0.04-0.96 0.02-1.39-0.03-0.45-0.05-0.75-0.18-1-0.31-0.24-0.15-0.44-0.34-0.78-0.79-0.33-0.42-0.82-1.18-1.72-1.78-0.88-0.59-1.95-0.82-2.76-0.82-0.88-0.04-1.71 0.12-2.4 0.31-1.39 0.4-2.46 0.89-3.4 1.07-0.89 0.2-1.73 0.12-2.38-0.18-0.64-0.31-1.02-0.77-1.2-1.45-0.18-0.66-0.08-1.69 0.16-2.76 0.23-1.08 0.59-2.2 0.95-3.39q0.28-0.88 0.54-1.88c0.16-0.67 0.33-1.37 0.32-2.31-0.05-1.89-0.91-3.33-1.61-4.42-0.72-1.11-1.43-2.05-1.78-2.87q-0.28-0.6-0.28-1.02 0.02-0.04 0.02-0.05 0.08-0.17 0.28-0.46c0.54-0.76 1.4-1.61 2.25-2.42l1.33-1.24 0.71-0.66c0.24-0.24 0.49-0.49 0.81-0.88l0.7-0.85-0.42-1.03c-0.3-0.74-0.4-1.52-0.31-1.64 0.02-0.1 0.09-0.24 0.32-0.51 0.23-0.26 0.6-0.61 1.01-1.06 0.4-0.46 0.85-1.06 1.13-1.76 0.28-0.68 0.45-1.43 0.46-2.1 0.05-1.42-0.29-2.53-0.59-3.54-0.32-1.01-0.66-1.94-0.95-2.81-0.27-0.87-0.51-1.72-0.54-2.38q0-0.02 0-0.04 0.05-0.11 0.15-0.29l0.3-0.5 0.37-0.53q0.79-1.08 1.73-2.09c1.25-1.35 2.62-2.61 4.08-3.65 1.43-1.02 3.03-1.9 4.44-2.1 0.61-0.1 1.54-0.05 2.19 0.1 0.69 0.16 1.18 0.42 1.66 0.87 0.81 0.75 1.62 2.28 2.82 3.73q-0.89 1.32-1.61 2.71c-1.43 2.75-2.38 5.66-3.11 8.59-0.26 1.03 0.37 2.07 1.4 2.33 1.04 0.26 2.08-0.36 2.35-1.39v-0.04c0.68-2.69 1.58-5.3 2.82-7.69 1.24-2.38 2.82-4.56 4.83-6.16 1.99-1.61 4.37-2.67 6.88-2.94q0.47-0.07 0.94-0.08c0.32-0.01 0.63-0.03 0.92 0.01l0.89 0.05 0.84 0.18c1.08 0.29 2.02 0.84 2.96 1.68 0.94 0.82 1.86 1.91 2.99 3.01 1.12 1.09 2.51 2.2 4.13 2.87 1.61 0.66 3.32 0.98 4.94 1.01 1.56 0.04 2.95-0.01 4.32 0.05 1.34 0.07 2.72 0.18 3.73 0.54 0.52 0.16 0.85 0.4 1.11 0.6 0.18 0.26 0.39 0.5 0.51 1.05 0.29 1.01 0.37 2.54 0.59 4.05q0.11 0.63 0.24 1.27-0.04-0.02-0.08-0.03l-2.86-1.44c-0.52-0.24-1.05-0.5-1.74-0.73-0.65-0.22-1.66-0.41-2.68-0.13-1 0.28-1.65 0.82-2.16 1.27-0.52 0.47-0.88 0.92-1.27 1.37-0.73 0.88-1.37 1.75-2.02 2.62-1.28 1.72-2.53 3.43-3.85 5.1q-0.01 0.02-0.02 0.03c-0.65 0.85-0.47 2.06 0.38 2.7 0.85 0.64 2.06 0.47 2.7-0.38l3.88-5.13c0.64-0.84 1.28-1.69 1.92-2.45 0.31-0.36 0.64-0.73 0.91-0.98 0.29-0.26 0.52-0.39 0.55-0.38 0.02-0.01 0.11-0.04 0.47 0.08 0.33 0.11 0.77 0.3 1.21 0.52l2.88 1.44q2.38 1.14 4.85 2.08l0.05 1.3q0 1.25-0.13 2.46-0.21 1.93-0.73 3.82-0.65-0.25-1.33-0.39c-1.35-0.28-2.69-0.29-3.93-0.16-2.49 0.26-4.72 0.93-6.91 1.63h-0.02c-1.02 0.34-1.58 1.44-1.25 2.46 0.34 1.03 1.44 1.59 2.46 1.25h0.02c2.06-0.67 4.14-1.28 6.09-1.49q1.47-0.16 2.74 0.09c0.84 0.16 1.59 0.51 2.34 1.04 1.5 1.05 2.89 2.71 4.27 4.4l3.07 3.88q-0.57 0.41-1.32 0.89z"/>
		<path class="s0" d="m70.68 75.99h-0.05c-0.86-0.08-1.64-0.23-2.21-0.52-0.3-0.16-0.56-0.34-0.92-0.65-0.35-0.29-0.79-0.68-1.32-1-1.06-0.67-2.23-1-3.29-1.19q-0.81-0.15-1.59-0.2-0.79-0.07-1.55-0.07c-1.04-0.03-1.99-0.01-3.01 0.02-1.03 0.06-2.07 0.06-3.37 0.52-0.64 0.21-1.37 0.72-1.83 1.29-0.49 0.6-0.73 1.17-0.95 1.7-0.39 1.04-0.64 1.97-0.93 2.89v0.01c-0.25 0.82 0.22 1.69 1.04 1.95 0.82 0.25 1.7-0.22 1.95-1.04v-0.01c0.29-0.93 0.55-1.89 0.85-2.66 0.15-0.37 0.31-0.7 0.45-0.85 0.15-0.16 0.23-0.26 0.53-0.36 0.52-0.21 1.48-0.29 2.38-0.32 0.91-0.03 1.91-0.05 2.82-0.02 1.83 0.04 3.67 0.23 4.83 0.97 0.3 0.19 0.6 0.44 1 0.77 0.37 0.33 0.9 0.72 1.47 1.01 1.16 0.6 2.34 0.77 3.41 0.87h0.01c0.85 0.08 1.61-0.55 1.69-1.41 0.08-0.86-0.55-1.62-1.41-1.7z"/>
		<path class="s0" d="m53.36 58.72c0.3 0.51 0.53 0.97 0.65 1.37 0.11 0.41 0.11 0.7 0.02 1.02-0.23 0.82 0.24 1.67 1.05 1.92 0.82 0.25 1.69-0.22 1.95-1.04 0.27-0.91 0.22-1.94-0.02-2.75-0.24-0.83-0.61-1.5-0.95-2.09l-0.01-0.01c-0.43-0.75-1.39-1-2.13-0.56-0.74 0.43-1 1.39-0.56 2.13z"/>
		<path class="s0" d="m47.05 82.27l-0.12-0.01c-0.93-0.04-1.87-0.11-2.65-0.34-0.8-0.23-1.4-0.54-1.88-1.04-0.26-0.26-0.48-0.55-0.85-1.04l-0.32-0.41c-0.14-0.15-0.32-0.32-0.48-0.47-0.22-0.18-0.44-0.35-0.72-0.49-0.29-0.12-0.61-0.27-0.89-0.3-0.32-0.04-0.56-0.09-0.94-0.05-0.34 0.03-0.56 0.1-0.78 0.16-0.41 0.13-0.72 0.27-1.01 0.41q-0.44 0.21-0.82 0.43l-0.37 0.22-0.17 0.09-0.05 0.04c0 0-0.04 0.02 0 0q0.05-0.03 0.11-0.05c-1 0.41-1.46 1.56-1.04 2.55 0.41 0.99 1.56 1.46 2.55 1.04l0.2-0.09 0.09-0.05 0.11-0.07 0.18-0.1 0.32-0.19q0.31-0.17 0.58-0.31 0.14-0.07 0.26-0.11l0.1 0.12c0.27 0.36 0.68 0.92 1.17 1.41 0.99 1.04 2.35 1.72 3.59 2.06 1.26 0.36 2.46 0.43 3.64 0.48 1.07 0.06 1.98-0.77 2.04-1.85 0.05-1.07-0.78-1.99-1.85-2.04z"/>
		<path class="s0" d="m27.21 77.7q-0.72-0.44-1.42-0.91l-0.73-0.49c-0.27-0.17-0.47-0.35-1.01-0.59-0.26-0.11-0.74-0.24-1.21-0.18-0.46 0.06-0.73 0.2-0.92 0.29-0.37 0.19-0.59 0.33-0.83 0.46q-0.71 0.39-1.45 0.73c-0.78 0.35-1.13 1.28-0.78 2.06 0.36 0.79 1.28 1.14 2.07 0.78q0.85-0.38 1.68-0.84l0.48-0.27 0.24 0.16 0.73 0.48q0.75 0.5 1.52 0.98c0.73 0.45 1.7 0.22 2.15-0.51 0.45-0.74 0.22-1.7-0.52-2.15zm-3.87 0.9q0.01 0 0 0z"/>
	</g>
</svg>