<svg version="1.2" xmlns="http://www.w3.org/2000/svg" viewBox="0 0 75 78" width="75" height="78">
	<style>
		.s0 { fill: #000000 } 
	</style>
	<path class="s0" d="m42.33 1.62c1.25 0.03 2.48 0.3 3.64 0.76l1.98 0.32 2.49 0.94c0.64 0.33 0.71 0.39 1.03 0.59 4.48 2.87 7.45 7.85 7.9 13.15 0 0 2.52 0.73 4.5 2.05 3.26 2.18 5.65 5.56 7.41 9.13 0.08-3.48-3.54-6.55-5.76-9.35-0.78-0.96-2.1-1.6-2.09-2.89 0-0.89 1.07-1.58 0.94-2.18-0.2-1.08 0.94-2.06 2.21-0.45 3.98 5.08 5.97 11.38 7.3 17.74 0.95 4.58 1.31 9.35 0.17 13.9 0 0 0.01 0-0.22 0.96-1.04 4.18-4.09 7.76-7.59 9.87 0 0 1.01 1.1 1.66 2.4 1.17 2.31 1.38 4.95 1.34 7.55-0.07 3.76-1.06 7.74-4.43 9.83-4.28 2.65-9.75 1.81-14.35 0.65q-1.83-0.47-3.63-1.08c-8.49 3.18-18.88 2.54-25.36-5.17-1.67-0.42-3.22-1.26-4.63-2.28-1.06-0.3-1.2-0.43-1.77-0.86-0.37-0.27-0.89-0.7-0.89-0.7-0.8 0.76-1.54 1.75-1.58 2.75-0.09 2.27 3.64 3.53 5.12 4.43 0.69 0.43 1.74 1.03 0.05 2.32-0.84 0.65-1.88 1.05-2.94 1.08-2.97 0.09-5.39-2.18-7.17-4.24-4.83-5.59-7.12-13.94-3.94-20.47 0.03-0.05-0.83-1.37-1.28-2.37-1.96-4.31-2.4-9.2-2.14-13.97 0.08-1.41 0.31-2.81 0.77-4.14 0 0-0.45-3.86 0.71-6.29 0 0 0.27-1.67 0.67-2.76 0.61-1.69 1.69-3.2 3.09-4.35 0 0 0.63-4.02 1.74-7.06q0.66-1.82 1.61-3.51c2.27-3.96 6.19-7.04 10.63-7.48 4.93-0.48 9.8 1.77 14.32 4.38 0 0-0.41 0.44 0.79-0.45 2.27-1.64 4.95-2.79 7.7-2.75zm22.46 55.3q-1.58 0.72-3.25 1.18c0 0 0.53 2.49-0.1 4.37-1.91 5.68-7.36 9.73-12.3 12.07l-0.16 0.08c6.58 1.97 15.45 3.67 18.09-3.86 0.94-2.68 0.92-5.69 0.49-8.37-0.33-2.02-1.21-3.97-2.65-5.44 0 0-0.03-0.07-0.12-0.03zm-33.95 9.13c-1.63 2.39-4.03 4.54-7.1 4.58 5.1 5.24 13.78 6.1 20.77 4.08 0 0-2.96-1.19-4.7-2.26-3.09-1.91-5.99-4.15-8.87-6.34 0 0-0.07-0.1-0.1-0.06zm-26.16-12.14c-2.83 7.39 1.06 17.23 7.54 20.92 1.36 0.78 3.17 1.03 4.56 0.04-2.17-1.18-1.78-0.78-2.14-1q-0.42-0.27-0.83-0.56-0.31-0.23-0.6-0.47-0.22-0.18-0.43-0.38c-1.39-1.29-2.14-3.41-0.89-5.49 0.39-0.66 1.18-1.48 1.18-1.48-1.88-1.81-4.96-5.74-6.92-10.06 0 0-0.05-0.11-0.69-0.79-0.35-0.39-0.66-1.04-0.78-0.73zm55.27 4.57c-0.95 0.2-2.01 0.38-2.01 0.38-0.24 0.25-0.22 0.24-0.44 0.53-1.46 1.95-3.73 3.14-6.05 3.7-0.25 0.06-1.4 0.89-2.33 1.36-4.62 2.38-10.05 3.07-15.17 2.04q0.43 0.3 0.85 0.61c2.85 2.01 5.61 4.16 8.55 5.45q1.7 0.75 3.46 1.37c0.24-0.1 0.24-0.1 0.48-0.2 4.95-2.07 9.66-5.26 12.18-10.42 0.72-1.48 1.18-3.17 0.59-4.71 0 0-0.01-0.13-0.11-0.11zm-30.7 6.42c-2.15 0.28-4.31 0.02-6.47 0 0 0 0.16 2.1-1.25 2.93l0.77 1.16c1.18 0.23 2.43 0.17 3.55-0.3 1.6-0.68 2.79-2.07 3.75-3.48 0 0-0.14-0.34-0.35-0.31zm-11.76-0.29c-0.68 0.25-1.65 0.72-1.65 0.72 0.67 0.57 1.66 1.35 1.66 1.35 0.57 0.13 1.43 0.18 1.43 0.18q-0.18-0.28-0.36-0.56c-0.47-0.76-0.89-1.76-1.08-1.69zm1.87 0.11c0.49 0.8 1.21 1.91 1.21 1.91 0.73-0.3 0.7-1.77 0.7-1.77q-0.2-0.01-0.4-0.03-0.8-0.08-1.6-0.25 0.05 0.07 0.09 0.14zm15.81-2.23c-0.86 0.11-2.12 0.26-2.12 0.26q-0.03 0.2-0.03 0.2c-0.11 0.38-0.53 0.76-0.53 0.76 2.79 0.95 5.79 1.47 8.73 1.39 0.97-0.03 1.93-0.3 2.79-0.74 0 0-2.63-0.16-4.85-0.57q-1.98-0.39-3.77-1.31c0 0-0.13 0-0.22 0.01zm-25.67-4.17c1.41 2.21 3.19 4.16 5.12 5.95 0 0 0.9-0.48 1.54-0.75q-0.21-0.1-0.41-0.21c-2.08-1.1-3.86-2.7-5.31-4.55q-0.21-0.11-0.42-0.22c-0.88-0.48-0.56-0.28-0.52-0.22zm17.36 4.88q-1.57 0.07-3.13 0.2l-0.14 0.02c1.29 0.04 2.58 0.14 3.87 0.11h0.15l-0.43-0.35q-0.16 0.01-0.32 0.02zm3.87-0.23c0 0 0.21-0.02 0 0zm10.51-1.44q-1.43 0.25-2.88 0.49l-0.09 0.01c1.79 0.54 3.68 0.8 5.56 0.82 0 0 0.33 0.09-0.18-0.09q-1.25-0.46-2.33-1.22-0.01-0.01-0.08-0.01zm-21.71-1.78c-1.75 0.65-2.03 0.49-2.73 0.52h-0.01c0.62 1.08 1.4 2.46 1.4 2.46 0.29 0.1 0.43-0.03 0.61-0.07 0.74-0.18 1.8-0.37 1.8-0.37-0.32-0.85-0.55-1.46-1.02-2.48 0 0-0.01-0.06-0.05-0.06zm3.31-0.12c-0.7 0.02-1.68 0.05-1.68 0.05q0.4 0.93 0.77 1.88c0.19 0.51 0.18 0.51 0.18 0.51 1.67-0.21 2.02-0.21 2.81-0.26l0.53-0.04q-1.26-1.04-2.51-2.09c0 0-0.04-0.05-0.1-0.05zm23.03 1.05q-1.15 0.21-2.3 0.43c0.61 0.27 0.74 0.3 1.11 0.41 0.85 0.25 1.89 0.61 2.46 0.22 0.49-0.33 1.12-0.9 1.12-0.9-0.98-0.18-1.04-0.21-1.36-0.3 0 0-0.61 0.06-1.03 0.14zm4.35 0.56q-0.29 0.33-0.59 0.65 0.24-0.03 0.48-0.07c1.54-0.24 2.34-0.6 0.24-0.73q-0.06 0.08-0.13 0.15zm-36.65-1.29q1.06 0.96 2.28 1.7l-0.83-1.47q-0.43-0.05-0.85-0.13c-0.26-0.06-0.72-0.2-0.6-0.1zm16.54-1.41c-1.03 0.36-2.1 0.59-3.19 0.75q0.62 1.19 1.47 2.22c0 0 1.65 0.02 3.05-0.11q-0.34-1.49-1.2-2.76c0 0-0.03-0.13-0.13-0.1zm6.77-3.23c-1.09 1.38-1.89 2.97-2.68 4.55l-0.04 0.08c0.57 0.43 1.48 0.97 1.48 0.97q2.1-0.3 4.2-0.66c0 0 0.38 0.46-0.29-0.53-0.56-0.84-0.67-1.89-0.52-2.88 0 0-1.02-0.78-1.91-1.51 0 0-0.08-0.22-0.24-0.02zm3.58 2.45c0.03 0.84 0.6 1.57 1.25 2.16q0.78-0.14 1.56-0.28l0.63-0.12q-0.22-0.09-0.43-0.19-1.39-0.63-2.71-1.41c0 0-0.3-0.25-0.3-0.16zm-15.22 1.73c0 0 0.36 0.53 0.13 0.05 0 0 0.05-0.07-0.13-0.05zm28.09 0q-0.31 0.03-0.61 0.07c0.41-0.04 1.45-0.18 0.61-0.07zm-8.2-6.46c-1.38 0.01-2.77 0.39-3.59 1.58-0.4 0.58-0.79 1.53-0.79 1.53 1.86 1.2 3.86 2.18 5.98 2.8 0 0 1.98-0.33 3.4-0.54l0.21-0.03c0.87-1.32 1.56-2.75 2.13-4.23 0 0-0.99-0.28-1.77-0.63l-0.02-0.01q-2.75-0.47-5.55-0.47zm-10.63-0.07c0.1 1.89-0.95 3.77-2.66 4.79l1.13 1.21q0.27-0.52 0.53-1.03c0.68-1.29 1.4-2.57 2.32-3.7 0 0-0.72-0.7-1.33-1.33q0 0.03 0.01 0.06zm-16.1 4.9q-1.34 0.22-2.7 0.36c0 0-0.16-0.11-0.03 0.11 1.02 0.06 2.05 0.01 3.07-0.04 0 0 0.17 0.19-0.18-0.4 0 0 0.09-0.07-0.16-0.03zm5.69-1.83c-0.42 0.24-1.02 0.53-1.02 0.53 0.3 0.65 0.89 1.51 0.89 1.51 0.32-0.01 0.76-0.05 0.76-0.05-0.35-0.93-0.57-2.02-0.63-1.99zm30.63-1.48q-0.86 1.65-1.87 3.21l-0.19 0.3c1.12-0.14 2.72-0.35 2.72-0.35 0.77-0.84 1.75-2.12 1.75-2.12q-1.13-0.62-2.35-1.05c0 0-0.04-0.03-0.06 0.01zm-28.36-0.63c-0.32 0.51-0.96 1.15-0.96 1.15q0.32 1.41 0.86 2.77l0.01 0.03q1.51-0.18 2.96-0.61c-0.85-1.1-1.76-2.14-2.68-3.19 0 0-0.13-0.25-0.19-0.15zm-6.03 3.55c-0.81 0.2 0.14 0.09 0.14 0.09 0 0-0.08-0.11-0.14-0.09zm-5.44-4.54q-1.17 0.44-2.42 0.46l-0.11-0.01q0.33 0.47 0.68 0.93c0.19 0.26 0.19 0.26 0.38 0.51 0.56 0.8 1.31 1.96 1.31 1.96 0.96-0.04 1.91-0.17 2.86-0.31l0.1-0.02c-0.77-1.21-1.68-2.66-1.68-2.66q-0.3-0.26-0.6-0.52c-0.21-0.19-0.34-0.41-0.52-0.34zm45.76 1.29c-0.22 0.69-0.65 1.64-0.65 1.64q0.11 0.11 0.21 0.23c0.24 0.26 0.54 0.66 0.54 0.66q1.39-0.35 2.72-0.89l0.1-0.04c-0.9-0.65-1.88-1.16-2.89-1.6q-0.03-0.02-0.03 0zm-52.22-2.04q0.61 1.49 1.38 2.91c0.2 0.34 1.6 1.42 2.93 1.62l0.17 0.03q-0.18-0.28-0.37-0.55c-0.78-1.12-1.55-2.29-2.39-3.27q-0.14-0.05-0.28-0.11c-0.56-0.25-1.3-0.71-1.3-0.71-0.29-0.02-0.16 0.04-0.14 0.08zm23.36-2.42c-1.35 0.71-2.83 1.15-4.34 1.36l-0.22 0.02c1.02 1.89 2.15 3.71 3.48 5.38l0.08 0.1c1.49-0.78 2.39-2.3 2.16-4.1-0.1-0.76-0.4-1.8-0.4-1.8q-0.19-0.24-0.37-0.47c-0.19-0.24-0.32-0.53-0.39-0.49zm-13.39 0.93q-0.81 0.72-1.72 1.32c0.32 0.55 0.52 0.83 0.95 1.2q1.46 1.23 2.92 2.44l0.18 0.16c0.28-0.08 0.47 0.07 0.32-0.8-0.08-0.44-0.14-1.08-0.14-1.08q-0.83-1.71-2.11-3.12c0 0-0.35-0.16-0.4-0.12zm26.03-0.03c-1.53 0.03-3.09 0.26-4.26 1.18-0.81 0.63-1.5 1.4-2.17 2.17l-0.05 0.06c0.61 0.5 1.53 1.2 1.53 1.2q0.07-0.15 0.13-0.3 0.07-0.15 0.15-0.3 0.17-0.33 0.36-0.64c0.84-1.33 2.08-2.36 3.71-2.46q1.77-0.09 3.53 0.03c0 0 0.6 0.28-0.07-0.25q-0.36-0.29-0.7-0.59-0.3-0.03-0.6-0.05-0.78-0.05-1.56-0.05zm16.88 0.95l-0.17 0.49c-0.2 1.11 0.2 0.77 0.45 0.88 1.22 0.56 2.4 1.24 3.45 2.08l0.04 0.03c1.6-0.88 3.02-2.08 4.18-3.5 0 0-2.22 0.44-3.92 0.37-1.34-0.06-2.66-0.24-3.99-0.43q-0.02 0.05-0.04 0.08zm-38.91-0.33c-0.05 0.88-0.02 2.12-0.02 2.12 0.03 0.53 0.51 1.58 0.51 1.58 0.37-0.19 0.86-0.51 0.86-0.51-0.16-0.84-0.31-1.95-0.39-3.15 0 0-0.22-0.04-0.96-0.08q0 0.01 0 0.04zm34.04 1.52c-0.34 0.42-0.79 0.43 0.21 0.87q0.69 0.31 1.34 0.69 0.2-0.29 0.38-0.59 0.11-0.17 0.22-0.34-0.37-0.12-0.73-0.23c-0.59-0.18-1.37-0.46-1.42-0.4zm-31.47-0.34c0.03 0.32-0.12 1.25 0.35 0.22 0 0-0.42-0.85-0.35-0.22zm13.49-8.88c-1.37 1.98-3.04 3.76-5 5.14q0.08 0.21 0.16 0.42c0.12 0.35 0.28 0.86 0.28 0.86q1.34 1.61 2.87 3.03c0 0 0.36-0.31 0.55-0.52 0.16-0.17 0.16-0.17 0.32-0.34 1.38-1.48 3.08-2.69 5.09-2.91q1.15-0.12 2.3-0.09-0.11-0.13-0.21-0.27c-0.62-0.85-1.14-1.78-1.62-2.72 0 0-2.66-1.38-4.67-2.7q-0.03 0.05-0.07 0.1zm11.18 7.63q0.5 0.33 1.02 0.61c0.74 0.4 0.76 0.29 1.07 0.35 0.53 0.11 1.3 0.29 1.3 0.29 0.07-0.22 0.14-0.48 0.14-0.48q-1.77-0.44-3.56-0.78 0.02 0 0.03 0.01zm8.1-0.54q-0.16 0.35-0.34 0.69c-0.22 0.41 0.97 0.42 1.93 0.74l0.43-0.85q-0.2-0.05-0.4-0.1c-0.67-0.17-1.58-0.6-1.62-0.48zm-46.78-2.08c-1.07 0.18-2.11 0.53-3.03 1.08l1.16 0.97c0.49 0.05 0.56 0.09 0.77 0.17 0.53 0.22 1.14 0.83 1.14 0.83 0.88 0.29 1.83 0.31 2.72 0.09 0 0-1.13-1.32-1.98-2.29-0.84-0.96-0.76-0.85-0.78-0.85zm4.56 1.22c0.17 0.36 0.43 0.88 0.43 0.88 0.3-0.2 0.7-0.5 0.7-0.5-0.27-0.08-0.27-0.07-1.14-0.41q0 0.02 0.01 0.03zm29.91-2.71q0.74 1.19 1.74 2.15c0 0 3.25 0.53 6.31 1.26l0.28-1.33q-0.34-0.04-0.69-0.09c-2.57-0.38-5.09-1.07-7.51-2 0 0-0.23-0.17-0.13 0.01zm26.08-13.93c-0.53 0.95-1.22 1.81-2.08 2.48 0 0 1.99 8.94-4.28 12.75-0.87 0.53-1.85 0.86-2.85 1.05l-0.31 0.66q0.99 0.14 1.97 0.24c2.55 0.26 5.38 0.36 7.09-1.52 0.09-0.1 1.03-2 1.49-3.68 0 0 0.49-3.29 0.25-5.95-0.19-2.02-0.62-4.01-1.23-5.94 0 0-0.02-0.15-0.05-0.09zm-16.3 16.45v0.13c0 0 0.02-0.25 0-0.13zm-32.6-0.31c-0.03 0.2-0.34 0.43 0.31 0.46 0 0 0.21 0.21-0.2-0.36 0 0-0.09-0.24-0.11-0.1zm36.95 0.34c1 0.26-0.38-0.1 0 0zm-33.64-7.81q-0.39 1.27-0.64 2.57c0.76 1.65 1.48 3.39 1.78 5.22v0.02c1.32-0.15 2.62-0.51 3.81-1.1l0.1-0.06q-0.13-0.22-0.26-0.44-0.13-0.23-0.26-0.47-0.67-1.24-1.15-2.58c0 0-0.4 0.78-1.23 0.25q-0.29-0.19-0.53-0.45-0.11-0.13-0.22-0.26-0.11-0.14-0.21-0.28-0.13-0.2-0.25-0.4-0.15-0.27-0.29-0.54-0.17-0.34-0.32-0.68c-0.18-0.41-0.29-0.93-0.33-0.8zm-4.56 5.7q-0.72 1-1.6 1.87l1.29 0.21q0.05-0.35 0.1-0.7 0.05-0.33 0.11-0.66c0.06-0.38 0.23-0.9 0.1-0.72zm-8.34 1.08q0.36 0.41 0.72 0.83c-0.38-0.98-0.49-0.74-0.71-0.86 0 0-0.15-0.13-0.01 0.03zm3.95-14.74c-2.64 3.38-2.71 8.25-2.48 12.36 0.03 0.36-0.22 0.82 0.45 0.95 1.19 0.24 2.35 0.67 3.39 1.3l0.14 0.09q1.23-1.19 2.16-2.63c0 0-0.85-1.9-1.43-3.54-0.99-2.74-1.69-5.57-2.22-8.46-0.01-0.03 0-0.09-0.01-0.07zm-9.39 12.73c-0.56 0.02-0.76 0.44-0.41 1.77 0 0 1.2-0.68 2.33-1 0 0-0.82-0.71-1.84-0.77q-0.04 0-0.08 0zm51.1-5.67c-0.11 1.4-0.26 2.79-0.55 4.17 0.19 0.78 0.18 0.88 0.23 1.29 0.07 0.69 0.02 1.68 0.02 1.68 0.67 0.04 1.62 0.06 1.62 0.06 0.02-2.46-0.39-4.94-1.31-7.24q-0.01 0.01-0.01 0.04zm-3.97 0.43c0.73 2.07 0.89 4.28 0.72 6.45l0.43 0.04q0.4-1.29 0.71-2.62c0 0-0.78-2.39-1.92-4.03q0.03 0.08 0.06 0.16zm13.32-4.93c-1.46 0.56-3.07 0.61-4.61 0.44 0 0-0.08 2.35-0.26 4.47 0.45 2.07 0.23 4.27-0.33 6.34l-0.03 0.1c4.22-1.22 6.3-6.47 5.26-11.29 0 0 0-0.07-0.03-0.06zm-44.84 9.96c-0.31 1.2 0.02 1.03 0.18 1.28 0.04-0.79-0.12-1.54-0.18-1.28zm20.83-2c0.1 0.22 0.24 0.52 0.24 0.52 2.31 1.05 4.75 1.85 7.23 2.37l0.14 0.03q-0.21-0.16-0.41-0.32-1.21-0.97-2.31-2.05c0 0-2.11 0.47-3.69-0.08-0.57-0.2-1.31-0.72-1.2-0.47zm-14.07-3.33c0.09 0.99 0.43 1.1 0.67 1.54q1.18 2.23 2.19 4.53l0.07 0.15c1.7-1.25 3.14-2.83 4.35-4.56l0.06-0.1q-0.31-0.23-0.62-0.46c-1.13-0.86-2.02-0.36-2.99-0.43-1.25-0.1-2.48-0.37-3.68-0.74 0 0-0.06-0.12-0.05 0.07zm22.73-0.31c-0.58 1.26-1.32 2.48-2.4 3.36l-0.04 0.03q1.72 1.65 3.7 2.96l0.03 0.02c0.11-2.21-0.24-4.47-1.18-6.48 0 0 0.05-0.24-0.11 0.11zm-40.87-11.14c-2.39 0.06-4.59 2.01-5.36 4.33l-0.02 0.06c0.21 5 2.31 9.92 6.57 12.79 0 0-0.6-7.17 1.17-11.22 0.46-1.05 1.11-2.01 1.83-2.9l0.13-0.15c-1.05-1.42-2.4-2.82-4.12-2.91q-0.1 0-0.2 0zm-6.84-2.44q-0.04 0.48-0.08 0.97c-0.46 4.71-1.27 9.42-0.9 14.13 0 0 0.31 1.51 0.53 2.38 0.2 0.53 0.57 1.27 0.57 1.27q-0.12-0.71-0.22-1.43c-0.24-1.81-0.31-3.64-0.37-5.47-0.05-1.73-0.05-3.5 0.41-5.19 0 0 0.01 0.12-0.01-0.54-0.03-1.83 0.05-3.67 0.09-5.51 0-0.32 0.06-0.75-0.02-0.61zm2.76 17.94c0.88 0.04 1.9 0.93 0.97-0.21-1.15-1.42-2.04-3.03-2.66-4.75 0.08 1.74 0.19 3.48 0.48 5.19q0.57-0.26 1.21-0.23zm51.19-8.36c0 0.52-0.02 1.22-0.02 1.22q0.13 0.21 0.25 0.43c1.09 1.96 1.78 4.12 2.11 6.34q0.24-1.64 0.38-3.3c0.1-1.04-1.21-2.99-2.68-4.78 0 0-0.04-0.23-0.04 0.09zm-39.45 1.5c0.55 2.04 1.22 4.06 2.07 6l0.38-0.81q-1.18-2.61-2.42-5.19c0 0-0.09-0.25-0.03 0zm7.24 1.5c0.67 1.66 1.34 3.8 2.24 4.27 0 0-0.26-1.09-0.4-2.03l-1.21-2.06c-0.28-0.14-0.53-0.39-0.63-0.18zm13.22 1.35c-0.23 0.45-0.6 1.1-0.6 1.1q1.32 0.87 2.71 1.61l0.17 0.1q-0.11-0.31-0.22-0.62c-0.11-0.32-0.21-0.48-0.39-0.64-0.71-0.64-1.6-1.68-1.6-1.68q-0.03 0.07-0.07 0.13zm3.36-3.35c-0.35 0.39-0.88 0.91-0.88 0.91q0.25 1.67 0.72 3.29c0 0 2.36 2 4.53 1.74 0 0-1.5-1.73-2.62-3.29q-0.82-1.15-1.56-2.36c-0.19-0.31-0.17-0.31-0.19-0.29zm1.82 0.08q1.77 2.78 4 5.18c0 0 0.71-0.48 1.04-0.89 0.52-0.65 0.91-1.4 1.24-2.16 0 0 0.02 0-0.32 0.01-2.06-0.03-3.97-1.17-5.91-2.13 0 0-0.08-0.07-0.05-0.01zm9.2-2.75q-0.23 1.32-0.57 2.62c0 0 1.4 1.54 2.34 2.94 0.44 0.65 0.98 1.65 0.98 1.65q0.03-0.22 0.05-0.43 0.11-1.37 0.21-2.75c0.06-0.75 0.05-0.75 0.05-0.75q-0.13-0.2-0.27-0.4c-0.79-1.12-1.75-2.1-2.76-3.05q-0.01 0.09-0.03 0.17zm-16.21 6.17c0 0 0.16-0.06 0 0zm-7.46-5.02q-0.6 1.52-0.71 3.15c1.39 0.49 2.85 0.82 4.33 0.88h0.11q-0.27-0.25-0.53-0.5c-1.16-1.1-2.24-2.28-3.18-3.58q0 0.01-0.02 0.05zm4.09-2.68q-1.64 0.51-3.13 1.35c1.32 1.95 3.01 3.64 4.82 5.15l0.06 0.05c0.97-0.17 2.29-0.73 2.29-0.73-1.37-1.9-2.68-3.87-4-5.83q-0.02 0.01-0.04 0.01zm-14.09 2.02q1.02 2 2.12 3.95l0.29 0.53c0.24-0.94 0.48-2.34 0.48-2.34-0.44-0.3-0.44-0.3-0.89-0.63q-1.04-0.77-2.02-1.61c0 0-0.13-0.21 0.02 0.1zm20.38 4.23l0.1 0.17c0 0 0.03-0.26-0.1-0.17zm-16.24-0.57c0 0 0.02-0.09 0 0zm4.03-2.32c-0.41 0.36-0.97 0.93-0.97 0.93l0.64 0.96q0.01-0.16 0.03-0.32c0.09-0.65 0.35-1.62 0.3-1.57zm16.67-2.82c-0.28 0.75-0.84 1.78-0.84 1.78 2.02 1.12 4.21 2.34 6.14 2.58 0.27 0.03 0.66-0.04 0.66-0.04-0.74-1.01-1.63-1.9-2.59-2.7l-0.04-0.03q-1.57-0.98-3.31-1.65 0 0.01-0.02 0.06zm15.14 2.23c0.53 0.7 1.24 1.78 1.24 1.78 0.03-0.63 0.06-1.49 0.06-1.49-0.3-0.07-0.56-0.12-1.36-0.37 0 0 0.03 0.05 0.06 0.08zm-22.29-3.43c-0.82 0.05-2.02 0.26-2.02 0.26q1.61 2.39 3.26 4.76l0.06 0.08q0.54-1.58 0.74-3.23l-0.49-0.46c0 0-1.42-1.42-1.55-1.41zm-13.14 3.58c-0.1 1.1 0.63 0.94 0.63 0.94-0.3-0.5-0.6-1.26-0.63-0.94zm16.95-0.38c0.09 1.28 0.37 0.25 0.37 0.25-0.39-0.26-0.37-0.27-0.37-0.25zm-14.99-7.76q-1.34 0.21-2.65 0.57c0.49 1.44 0.71 2.97 0.78 4.51v0.06q0.78 1.42 1.62 2.81 0.94-1.48 2.14-2.78c0 0-0.72-1.6-1.17-3.01-0.28-0.87-0.59-2.18-0.59-2.18q-0.07 0.01-0.13 0.02zm18.88 3.57c-0.07 0.46-0.07 0.23 0.31 0.42 2.1 1.07 4.01 2.44 5.8 3.95q0.28-1.43 0.34-2.9c0 0-0.26-0.32-1.02-0.25-1.88 0.15-3.82-0.27-5.42-1.27q0 0.01-0.01 0.05zm9.34 1.91q1.06 0.98 2.01 2.06c0 0 0.34-0.74-0.53-1.2-0.71-0.39-1.78-1.13-1.48-0.86zm5.88-9.28q0 0.2-0.01 0.39c-0.06 1.41-0.43 2.98-1.8 3.75 0 0 1.6 1.1 2.53 2.05 1.09 1.11 1.5 2.53 1.48 4.47l-0.01 0.17c1.41 0.18 2.89 0.17 4.17-0.37l0.04-0.02c-1.22-3.76-3.46-7.12-6.09-10.1q-0.07-0.08-0.14-0.16c-0.08-0.09-0.17-0.23-0.17-0.18zm-4.14 4.6c-0.2 0.36-0.51 0.86-0.51 0.86q0.15 0.17 0.29 0.35c0.83 1.01 1.41 2.21 1.71 3.47l0.02 0.07q1.61 0.76 3.33 1.19c0.01-0.79 0.12-1.62-0.24-2.26-0.92-1.66-2.76-2.74-4.49-3.72 0 0-0.04-0.09-0.11 0.04zm-35.24 0.77c-0.64 0.31-1.51 0.85-1.51 0.85 0.26 0.28 0.31 0.32 0.96 1.09q1.21 1.43 2.31 2.94l0.15 0.21c0.02-0.46 0.01-1.12 0.01-1.12q-0.2-0.38-0.39-0.76-0.79-1.54-1.43-3.15c0 0 0.03-0.13-0.1-0.06zm21.22 3.49q0.2 0.69 0.46 1.37 0.09-0.18 0.18-0.36c0.16-0.34 0.35-0.85 0.35-0.85-0.49-0.15-1.08-0.44-0.99-0.16zm17.09-14.13c0.4 1.11 0.32 2.33 1.3 3.33 3.23 3.31 5.94 7.16 7.46 11.5 0.86-0.81 1.45-1.86 1.84-2.97-2.05-5.14-5.53-10.05-10.61-11.89q0 0.01 0.01 0.03zm-41.13 12.46c0 0 1.02 1.24 1.93 2.07l0.03 0.03c-0.76-0.94-1.87-2.19-1.87-2.19q-0.04 0.05-0.09 0.09zm14.69 0.34c-0.65 0.2-0.72 0.5-0.72 0.5q0.26-0.1 0.53-0.2c0.63-0.22 0.27-0.32 0.19-0.3zm-3.15-4.04q-0.91 0.04-1.81 0.12 0.07 0.31 0.15 0.62 0.47 1.83 1.24 3.56c0 0 1.16-0.85 2.21-1.34l0.41-0.32q-0.29-0.41-0.58-0.83c-0.55-0.75-1.35-1.82-1.35-1.82q-0.14 0.01-0.27 0.01zm5.13 3.72c-1.02 0.1 0.09-0.01 0 0zm10.41-1.93c0.01 0.35 0.1 0.32 0.2 0.41 1.06 0.84 2.38 1.28 3.72 1.41q-0.23-0.14-0.45-0.27-1.65-0.93-3.43-1.58c0 0-0.05-0.07-0.04 0.03zm9.53 1.44c0 0 0.16 0.21 0.28 0.3-0.13-0.17-0.22-0.36-0.28-0.3zm-12.73-2.35c-0.34 0.76-0.3 2-0.3 2 0.68 0.19 1.93 0.64 1.93 0.64 0.05-0.37 0.07-0.89 0.07-0.89-0.51-0.59-0.5-0.65-0.66-0.94-0.16-0.27-0.32-0.69-0.32-0.69-0.36-0.08-0.67-0.23-0.72-0.12zm5.52 0.19q1.78 0.82 3.41 1.92c0 0-0.01 0.01-0.76-0.85l-0.05-0.06q-1.24-0.64-2.58-1.01c0 0-0.09-0.03-0.02 0zm-36.38-0.98c0.98 0.05 1.93 0.38 2.75 0.93-0.6-0.89-0.98-2.11-1.67-2.54-1.99-1.2-4.24-2.07-6.54-2.1l-0.08 0.12c-0.07 2.1-0.07 4.2-0.12 6.31 0 0-0.49 0.64 0.48-0.38 1.36-1.38 3.18-2.39 5.18-2.34zm27.16 0.21q-1.22 0.5-2.37 1.17l0.75 0.68q0.72 0.02 1.44 0.08c0.42 0.04 1.03 0.12 1.03 0.12-0.26-0.94-0.65-2.13-0.85-2.05zm-6.51-0.33q0.22 0.29 0.43 0.59c0.4 0.55 0.79 1.1 0.79 1.1 0.2-0.16 0.49-0.38 0.49-0.38-0.69-0.63-1.45-1.31-1.45-1.31-0.13 0-0.29-0.04-0.26 0zm-14.33-5.81c-0.32 0.02-0.42 2.9-0.38 4.47 0.03 0.76 0.17 1.87 0.17 1.87q0.27 0.26 0.54 0.51c1 0.99 0.82 0.46 1.02 0.34 0.68-0.43 1.7-0.93 1.7-0.93q-0.07-0.23-0.14-0.47-0.45-1.55-0.64-3.17c0 0-1.35-2.64-2.27-2.62zm33 5.9c0.31 0.46 0.76 0.9 0.76 0.9-0.26-1.39-0.23-0.72-0.76-0.95 0 0-0.1-0.09 0 0.05zm3.59 0.2l0.53 0.62c0.49-0.81-0.53-0.77-0.53-0.77q0 0.08 0 0.15zm-19.32 0.11l0.65-0.31c-0.42-0.02-1.04-0.04-1.04-0.04q0.2 0.18 0.39 0.35zm10.22-1.42c-0.92 0 1.97 0.34 3.59 0.85l-0.22-0.48q-0.23-0.06-0.48-0.11-1.43-0.27-2.89-0.26zm-23.89-7.77q0 0.42 0.01 0.85 0.02 0.89 0.06 1.79 0.01 0.7 0.01 1.41c0.02 0.99 0.05 0.99 0.05 0.99 0.17 0.26 0.2 0.29 0.61 0.96q0.67 1.12 1.22 2.3 1.46-0.42 2.97-0.65c0 0-0.22-2.03-0.27-3.73v-0.04c-1.4-1.42-2.91-2.76-4.59-3.85 0 0-0.07-0.07-0.07-0.03zm37.21 3.39c-0.25 1.67-0.67 3.31-1.3 4.88 0 0 0.96 0.03 1.39-0.73 0.64-1.11 0.51-2.52 0.32-3.79 0 0-0.37-0.64-0.41-0.36zm-5.9 4.68c0 0 0.44 0.23 0.01-0.03 0 0-0.02-0.03-0.01 0.03zm-48.71-2.51c-0.68 0.31-1.34 1.25-1.34 1.25q-0.09 0.7-0.12 1.4 0.7-1.31 1.45-2.59c0 0 0.1-0.1 0.01-0.06zm50.09-6.32c-0.66 0.03-1.33 0.12-1.33 0.12 1.3 2.31 1.69 4.98 1.65 7.63l1.11 0.62 0.36 0.19q0.08-0.19 0.15-0.38c0.65-1.69 1.03-3.46 1.22-5.25l0.01-0.16c-0.98-0.96-1.97-1.91-3.07-2.73 0 0-0.05-0.05-0.1-0.04zm-26.37 0.96c-0.11 1.01-0.16 2.44-0.16 2.44q2.75 2.28 5.41 4.66 2.39 0.02 4.74 0.2h0.02c-2.32-3.4-6.09-5.6-9.94-7.33 0 0-0.05-0.1-0.07 0.03zm-0.05 5.52c0.07 0.72 0.23 1.74 0.23 1.74 0.26-0.03 0.31-0.04 1.08-0.09l0.15-0.01q-0.27-0.34-0.55-0.67c-0.42-0.5-0.94-1.3-0.91-0.97zm-12.78-7.68c-0.71 0.08-0.72 0.44-0.9 0.8-1.14 2.25-0.67 5.19 0.18 7.7 0 0 0.68 0.49 1.23 0.91q-0.21-2.25-0.32-4.5-0.1-2.12-0.13-4.25c0 0 0.12-0.67-0.06-0.66zm34.83 8.63c0.13 0.49 0.07 0.18 0.99 0.51l0.21 0.08-0.07-0.21q-0.3-0.13-0.61-0.25c-0.28-0.11-0.56-0.3-0.52-0.13zm-21.16-10.65q-0.36 1.25-0.59 2.52c0 0 3.9 1.73 6.62 3.7 1.85 1.35 3.5 3 4.73 4.94l1.13-0.25q0.41-1.59 1.29-2.98c-2.53-3.91-6.63-6.75-11.24-7.58-0.89-0.17-1.91-0.48-1.94-0.35zm14.03 9.44q-0.26 0.54-0.46 1.1c0.91-0.17 0.7-0.65 0.7-0.65-0.11-0.23-0.2-0.52-0.24-0.45zm3.06 0.81q1.24 0.02 2.46 0.22l-0.02-0.42q-0.35-0.1-0.7-0.17-0.32-0.07-0.65-0.12-0.23-0.04-0.47-0.06-0.17-0.01-0.33-0.02c-0.59-0.01-1.42 0.35-1.42 0.35 0.09 0.23 0.09 0.23 0.09 0.23q0.27-0.01 0.55-0.01 0.24 0 0.49 0zm5.42-6.59c-0.53 0.14-1.31 0.39-1.31 0.39-0.26 1.22 0.23 1.44 0.53 1.98q0.99 1.81 1.72 3.75l0.41 0.29c0.27 0.12 0.5 0.23 0.5 0.23 0.01-2.32-0.51-4.63-1.68-6.6 0 0 0.06-0.1-0.17-0.04zm-38.73-0.9c-2.13 1.06-3.73 2.94-5.22 4.87 0 0-0.76-0.03 0.69 0.22 1.53 0.28 3.01 0.8 4.4 1.51 0 0 0.1 0.2-0.06-0.71-0.32-1.92-0.42-3.9 0.18-5.73 0 0 0.15-0.23 0.01-0.16zm33.77 5.43c0.63 0.03 1.51 0.2 1.51 0.2q-0.2-0.17-0.4-0.36-0.89-0.82-1.71-1.72c0 0-1.13 0.78-1.93 1.68 0 0 0.13 0.75 0.44 0.58 0.64-0.33 1.36-0.4 2.09-0.38zm-41.44-2.55q-0.93 1.16-1.43 2.56l1.27-0.39q0.05-0.79 0.11-1.59c0.03-0.24 0.07-0.61 0.05-0.58zm44.78 2.17l0.25 0.35c-0.12-0.24-0.25-0.76-0.25-0.35zm-33.01-5.6q0.03 1.85 0.1 3.69c0 0-0.11 0.33 0.11 0.08 0 0 0.46-0.49 1.08-0.52 0.94-0.04 1.72 0.68 2.24 1.36-0.03-1.22-0.12-2.44-0.04-3.66l0.01-0.03c-1.07-0.54-2.22-0.93-3.42-1.09 0 0-0.08-0.18-0.08 0.17zm16.37-9.97c-1.65 1.78-2.88 3.92-3.73 6.19l-0.04 0.11c3 0.55 5.99 1.33 8.5 3.02 2.01 1.35 3.76 3.09 5.14 5.08 0 0 1.04-0.9 1.82-1.49 0 0-1.3-1.71-2.22-3.22-1.07-1.76-1.84-3.69-2.19-5.69q-0.95-0.81-1.94-1.57c-0.62-0.48-1.53-1.13-1.53-1.13q-1.79-0.67-3.61-1.25c0 0-0.18-0.08-0.2-0.05zm14.91 12.67c-0.41 0.21-0.97 0.53-0.97 0.53 0.49 0.53 1.21 1.23 1.21 1.23 0.01-0.3 0.01-0.6 0.1-1.47-0.12-0.2-0.15-0.39-0.34-0.29zm-37.39-2.7c-1.41 0.42-2.76 1.01-3.96 1.86-0.13 1-0.26 2.42-0.26 2.42 0.29-0.36 0.29-0.36 0.59-0.74 1.07-1.27 2.18-2.51 3.54-3.48 0.07-0.05 0.14-0.08 0.09-0.06zm54.86-2.28c-0.29 0.42-0.26-0.15-0.8 1-0.35 0.74 1.36 1.72 2.62 3.36 0.73 0.94 1.82 2.2 1.82 2.2q-0.74-1.94-1.79-3.73c-0.56-0.95-1.19-1.85-1.8-2.77 0 0-0.03-0.08-0.05-0.06zm-43.56 2.01c0 0 1.31 0.92 2.28 1.7q1.08 0.89 2.16 1.77c0 0 0.11-1.02 0.22-1.88v-0.03q-2.26-0.95-4.63-1.61c0 0-0.01-0.05-0.03 0.05zm20.47-3.84c0.75 2.24 2.11 4.25 3.61 6.13 0 0 0.23-0.09 1.17-0.58l0.1-0.05c-1.42-1.98-3.05-3.8-4.81-5.49 0 0-0.13-0.21-0.07-0.01zm14.56 5.26c0.33 0.29 0.69 0.63 0.69 0.63 0.01-1.3-0.87-0.8-0.69-0.63zm-14.64-7.43c2.32 2.09 4.47 4.41 6.3 6.97 0 0 0.01 0.37 0.37-0.53 0.21-0.49 0.68-1.12 0.68-1.12-2.07-2.23-4.65-3.96-7.36-5.33q0 0 0.01 0.01zm-21.93-9.28c-5.14 0.1-9.54 4.08-11.62 9.13-0.84 2.03-1.4 4.16-1.79 6.32 2.51-1.41 5.38-2.05 8.25-2.06-0.05-3.25-0.25-6.62 1.28-9.39 1.31-2.35 4.61-2.61 6.87-2.32 2.8 0.34 5.51 1.13 8.26 1.9-3.49-1.92-7.26-3.6-11.25-3.58zm4.53 12.91c-0.92 0.03-1.9 0.09-2.37 0.85 0 0 1.47 0.51 2.65 0.94 0.67 0.24 1.64 0.63 1.64 0.63q0.07-0.34 0.14-0.68c0.17-0.75 0.39-1.56 0.39-1.56q-0.3-0.04-0.61-0.07-0.92-0.1-1.84-0.11zm26.87 0.94c1.34 0.08 2.7 1.2 3.45 1.2 0.8 0.01 1.94 0.13 1.94 0.13-3.01-5.31-6.44-10.8-11.71-13.14 0 0-1.33-0.06-2.25 0.67-1.33 1.05-1.56 2.95-1.56 4.48 0 0 0.66 0.4 1.34 0.75 2.94 1.54 5.74 3.4 7.98 5.87 0 0-0.07 0 0.81 0.04zm-33.85-0.75q1.54 0.05 3.06 0.37c0.41-0.82 0.48-0.89 0.81-1.18 1.5-1.32 3.95-0.93 5.86-0.67l0.16 0.02q0.1-0.26 0.2-0.53c0.83-2.16 1.97-4.19 3.46-5.96l0.04-0.04c-3.79-1.09-7.76-2.57-11.32-1.95-3.18 0.56-3.56 5.86-3.49 9.85 0 0-0.83 0.07 1.22 0.09zm32.87-9.16c2.32 2.22 4.23 4.84 5.93 7.56-1.09-3.09-3.32-5.77-6.04-7.67 0 0 0.07 0.07 0.11 0.11zm-9.08-2.7c-2.34 0.04-4.59 1.08-6.5 2.46l-0.19 0.14q0.39 0.24 0.77 0.49c0.75 0.48 1.82 1.22 1.82 1.22q0.43 0.17 0.86 0.34c0.71 0.28 1.68 0.7 1.68 0.7 0.02-0.29 0.02-0.29 0.04-0.59 0.19-1.84 0.88-3.69 2.42-4.71 0 0-0.37-0.06-0.9-0.05z"/>
</svg>